{
	"asset":{
		"generator":"Khronos glTF Blender I/O v3.6.28",
		"version":"2.0"
	},
	"scene":0,
	"scenes":[
		{
			"extras":{
				"aad_props":{},
				"b_settings":1,
				"b_joystick":1,
				"b_cubemap":1,
				"b_show_env_sky":1,
				"b_cubemap_background":1,
				"b_cast_shadows":1,
				"b_use_default_lights":1,
				"b_renderer":1,
				"b_aa":1,
				"b_colorManagement":1,
				"b_physicallyCorrectLights":1,
				"b_player":1,
				"b_raycast":1,
				"b_interactive":1,
				"b_export":1,
				"s_project_name":"template",
				"export_path":"/Users/gregoryvershbow/Documents/a-frame/",
				"b_export_single_model":0,
				"s_output":"exporting...",
				"recast_navmesh":{},
				"s_link":"https://www.google.it/"
			},
			"name":"Scene",
			"nodes":[
				0
			]
		}
	],
	"nodes":[
		{
			"extras":{
				"conform_object":{},
				"AFRAME_CUBEMAP":"1"
			},
			"mesh":0,
			"name":"animated",
			"rotation":[
				-0.20208409428596497,
				0,
				0,
				0.979368269443512
			]
		}
	],
	"animations":[
		{
			"channels":[
				{
					"sampler":0,
					"target":{
						"node":0,
						"path":"rotation"
					}
				}
			],
			"name":"IcosphereAction",
			"samplers":[
				{
					"input":5,
					"interpolation":"LINEAR",
					"output":6
				}
			]
		}
	],
	"materials":[
		{
			"doubleSided":true,
			"name":"Material.002",
			"pbrMetallicRoughness":{
				"baseColorFactor":[
					0.8000000715255737,
					0.6037077307701111,
					0,
					1
				],
				"roughnessFactor":0
			}
		}
	],
	"meshes":[
		{
			"name":"Icosphere",
			"primitives":[
				{
					"attributes":{
						"POSITION":0,
						"NORMAL":1,
						"TEXCOORD_0":2,
						"TANGENT":3
					},
					"indices":4,
					"material":0
				}
			]
		}
	],
	"accessors":[
		{
			"bufferView":0,
			"componentType":5126,
			"count":484,
			"max":[
				0.9400408267974854,
				1.0509257316589355,
				0.899543046951294
			],
			"min":[
				-0.9400408267974854,
				-1.0509257316589355,
				-0.8995431661605835
			],
			"type":"VEC3"
		},
		{
			"bufferView":1,
			"componentType":5126,
			"count":484,
			"type":"VEC3"
		},
		{
			"bufferView":2,
			"componentType":5126,
			"count":484,
			"type":"VEC2"
		},
		{
			"bufferView":3,
			"componentType":5126,
			"count":484,
			"type":"VEC4"
		},
		{
			"bufferView":4,
			"componentType":5123,
			"count":720,
			"type":"SCALAR"
		},
		{
			"bufferView":5,
			"componentType":5126,
			"count":45,
			"max":[
				1.875
			],
			"min":[
				0.041666666666666664
			],
			"type":"SCALAR"
		},
		{
			"bufferView":6,
			"componentType":5126,
			"count":45,
			"type":"VEC4"
		}
	],
	"bufferViews":[
		{
			"buffer":0,
			"byteLength":5808,
			"byteOffset":0,
			"target":34962
		},
		{
			"buffer":0,
			"byteLength":5808,
			"byteOffset":5808,
			"target":34962
		},
		{
			"buffer":0,
			"byteLength":3872,
			"byteOffset":11616,
			"target":34962
		},
		{
			"buffer":0,
			"byteLength":7744,
			"byteOffset":15488,
			"target":34962
		},
		{
			"buffer":0,
			"byteLength":1440,
			"byteOffset":23232,
			"target":34963
		},
		{
			"buffer":0,
			"byteLength":180,
			"byteOffset":24672
		},
		{
			"buffer":0,
			"byteLength":720,
			"byteOffset":24852
		}
	],
	"buffers":[
		{
			"byteLength":25572,
			"uri":"data:application/octet-stream;base64,"
		}
	]
}
