{
	"asset":{
		"generator":"Khronos glTF Blender I/O v3.6.28",
		"version":"2.0"
	},
	"scene":0,
	"scenes":[
		{
			"extras":{
				"aad_props":{},
				"b_settings":1,
				"b_joystick":1,
				"b_cubemap":1,
				"b_show_env_sky":1,
				"b_cubemap_background":1,
				"b_cast_shadows":1,
				"b_use_default_lights":1,
				"b_renderer":1,
				"b_aa":1,
				"b_colorManagement":1,
				"b_physicallyCorrectLights":1,
				"b_player":1,
				"b_raycast":1,
				"b_interactive":1,
				"b_export":1,
				"s_project_name":"template",
				"export_path":"/Users/gregoryvershbow/Documents/a-frame/",
				"b_export_single_model":0,
				"s_output":"exporting...",
				"recast_navmesh":{},
				"s_link":"https://www.google.it/"
			},
			"name":"Scene",
			"nodes":[
				0
			]
		}
	],
	"nodes":[
		{
			"extras":{
				"conform_object":{},
				"AFRAME_CUBEMAP":"1"
			},
			"mesh":0,
			"name":"models",
			"rotation":[
				0.674697995185852,
				-0.21161909401416779,
				0.21161909401416779,
				0.6746979355812073
			]
		}
	],
	"materials":[
		{
			"doubleSided":true,
			"name":"Material.001",
			"pbrMetallicRoughness":{
				"baseColorTexture":{
					"index":0
				},
				"metallicFactor":0,
				"metallicRoughnessTexture":{
					"index":1
				}
			}
		},
		{
			"doubleSided":true,
			"name":"Material.002",
			"pbrMetallicRoughness":{
				"baseColorFactor":[
					0.8000000715255737,
					0.6037077307701111,
					0,
					1
				],
				"roughnessFactor":0
			}
		}
	],
	"meshes":[
		{
			"name":"Cylinder",
			"primitives":[
				{
					"attributes":{
						"POSITION":0,
						"NORMAL":1,
						"TEXCOORD_0":2,
						"TANGENT":3
					},
					"indices":4,
					"material":0
				},
				{
					"attributes":{
						"POSITION":5,
						"NORMAL":6,
						"TEXCOORD_0":7,
						"TANGENT":8
					},
					"indices":9,
					"material":1
				}
			]
		}
	],
	"textures":[
		{
			"sampler":0,
			"source":0
		},
		{
			"sampler":0,
			"source":1
		}
	],
	"images":[
		{
			"bufferView":5,
			"mimeType":"image/jpeg",
			"name":"height test 1"
		},
		{
			"bufferView":6,
			"mimeType":"image/png",
			"name":"height test 1"
		}
	],
	"accessors":[
		{
			"bufferView":0,
			"componentType":5126,
			"count":18984,
			"max":[
				6.325689315795898,
				10.724273681640625,
				2.7833783626556396
			],
			"min":[
				-7.466795921325684,
				-7.579948425292969,
				-5.074403285980225
			],
			"type":"VEC3"
		},
		{
			"bufferView":1,
			"componentType":5126,
			"count":18984,
			"type":"VEC3"
		},
		{
			"bufferView":2,
			"componentType":5126,
			"count":18984,
			"type":"VEC2"
		},
		{
			"bufferView":3,
			"componentType":5126,
			"count":18984,
			"type":"VEC4"
		},
		{
			"bufferView":4,
			"componentType":5123,
			"count":53676,
			"type":"SCALAR"
		},
		{
			"bufferView":7,
			"componentType":5126,
			"count":343,
			"max":[
				0.9587992429733276,
				-1.1255203485488892,
				-0.05102260410785675
			],
			"min":[
				-0.28189054131507874,
				-2.834902763366699,
				-3.0278406143188477
			],
			"type":"VEC3"
		},
		{
			"bufferView":8,
			"componentType":5126,
			"count":343,
			"type":"VEC3"
		},
		{
			"bufferView":9,
			"componentType":5126,
			"count":343,
			"type":"VEC2"
		},
		{
			"bufferView":10,
			"componentType":5126,
			"count":343,
			"type":"VEC4"
		},
		{
			"bufferView":11,
			"componentType":5123,
			"count":1230,
			"type":"SCALAR"
		}
	],
	"bufferViews":[
		{
			"buffer":0,
			"byteLength":227808,
			"byteOffset":0,
			"target":34962
		},
		{
			"buffer":0,
			"byteLength":227808,
			"byteOffset":227808,
			"target":34962
		},
		{
			"buffer":0,
			"byteLength":151872,
			"byteOffset":455616,
			"target":34962
		},
		{
			"buffer":0,
			"byteLength":303744,
			"byteOffset":607488,
			"target":34962
		},
		{
			"buffer":0,
			"byteLength":107352,
			"byteOffset":911232,
			"target":34963
		},
		{
			"buffer":0,
			"byteLength":319283,
			"byteOffset":1018584
		},
		{
			"buffer":0,
			"byteLength":365582,
			"byteOffset":1337868
		},
		{
			"buffer":0,
			"byteLength":4116,
			"byteOffset":1703452,
			"target":34962
		},
		{
			"buffer":0,
			"byteLength":4116,
			"byteOffset":1707568,
			"target":34962
		},
		{
			"buffer":0,
			"byteLength":2744,
			"byteOffset":1711684,
			"target":34962
		},
		{
			"buffer":0,
			"byteLength":5488,
			"byteOffset":1714428,
			"target":34962
		},
		{
			"buffer":0,
			"byteLength":2460,
			"byteOffset":1719916,
			"target":34963
		}
	],
	"samplers":[
		{
			"magFilter":9729,
			"minFilter":9987
		}
	],
	"buffers":[
		{
			"byteLength":1722376,
			"uri":"data:application/octet-stream;base64,"
		}
	]
}
